/* XPM */
static char *_616_c1e1311f1802f1f219f408addea0ee5d313dc59125db1cea515f531a2c43ed37[] = {
/* columns rows colors chars-per-pixel */
"32 32 158 2 ",
"   c #22313A",
".  c #4C433F",
"X  c #2F3F46",
"o  c #343F44",
"O  c #463D44",
"+  c #483F44",
"@  c #4B3A4A",
"#  c #543D4C",
"$  c #5B3D4E",
"%  c #623E4F",
"&  c #324249",
"*  c #2E666A",
"=  c #266C6D",
"-  c #29706F",
";  c #2C7070",
":  c #4E4441",
">  c #43494E",
",  c #544B46",
"<  c #534D4A",
"1  c #5D534E",
"2  c #4E4E57",
"3  c #564B53",
"4  c #45535B",
"5  c #565755",
"6  c #5D5652",
"7  c #5C525B",
"8  c #61564F",
"9  c #734153",
"0  c #7B4456",
"q  c #615651",
"w  c #635A53",
"e  c #6A5E56",
"r  c #675D58",
"t  c #6A5F5A",
"y  c #5F6258",
"u  c #64645B",
"i  c #6D615A",
"p  c #63695C",
"a  c #71655B",
"s  c #76695E",
"d  c #4A6463",
"f  c #4D6962",
"g  c #516066",
"h  c #56676D",
"j  c #596A6E",
"k  c #58756B",
"l  c #5D6E73",
"z  c #437E79",
"x  c #6F6762",
"c  c #646867",
"v  c #756A63",
"b  c #796D63",
"n  c #776A69",
"m  c #706F6F",
"M  c #6A7265",
"N  c #6C736F",
"B  c #6C796A",
"V  c #7D7066",
"C  c #79766C",
"Z  c #77786D",
"A  c #7A7A6F",
"S  c #687370",
"D  c #697F72",
"F  c #657B7B",
"G  c #7A7D71",
"H  c #7A7978",
"J  c #837365",
"K  c #83756B",
"L  c #867A6E",
"P  c #8D7D6D",
"I  c #8B7575",
"U  c #837F74",
"Y  c #578C7E",
"T  c #6A8D7E",
"R  c #738474",
"E  c #738A77",
"W  c #758B7C",
"Q  c #7C8C7A",
"!  c #7A917D",
"~  c #8A8576",
"^  c #948272",
"/  c #9A8976",
"(  c #968778",
")  c #918B7B",
"_  c #A18E7A",
"`  c #A2917E",
"'  c #379686",
"]  c #359887",
"[  c #369C89",
"{  c #3DA18D",
"}  c #3FA891",
"|  c #539284",
" . c #6C8384",
".. c #728F82",
"X. c #6F9C8F",
"o. c #739787",
"O. c #7D9480",
"+. c #7E9D8C",
"@. c #58B298",
"#. c #7DA08F",
"$. c #7FA494",
"%. c #6DB49A",
"&. c #76BDA0",
"*. c #74C6A5",
"=. c #76C8A6",
"-. c #7DCBA9",
";. c #839382",
":. c #8A9280",
">. c #859A85",
",. c #869D89",
"<. c #889F8A",
"1. c #979A86",
"2. c #A69380",
"3. c #AC9781",
"4. c #A69D86",
"5. c #AA9985",
"6. c #A29F88",
"7. c #B39D85",
"8. c #85A48C",
"9. c #89A18C",
"0. c #83A592",
"q. c #8BA790",
"w. c #80A897",
"e. c #8AAC93",
"r. c #9DAB93",
"t. c #8BB49A",
"y. c #92B69B",
"u. c #92B89C",
"i. c #9CB99C",
"p. c #A2A48C",
"a. c #B4A38B",
"s. c #A4AB92",
"d. c #ABAB92",
"f. c #A1B59A",
"g. c #A6B99C",
"h. c #BCBC9E",
"j. c #86BDA1",
"k. c #89BDA2",
"l. c #95BEA1",
"z. c #9FBEA1",
"x. c #C1A78D",
"c. c #C4AB91",
"v. c #CAAE93",
"b. c #CFB396",
"n. c #C6BB9E",
"m. c #D5B799",
"M. c #8CC7A8",
"N. c #93C2A4",
"B. c #9BC5A6",
"V. c #90C7A8",
"C. c #99C7A8",
"Z. c #95CCAB",
"A. c #9CCEAD",
"S. c #99D1AF",
"D. c #8ED6B0",
"F. c #A3CCAB",
"G. c #BBC4A4",
"H. c #C0C1A1",
/* pixels */
"A.A.A.A.A.A.A.A.A.A.A.A.A.A.A.A.A.A.,.K ` ` 7.m.n.A.A.A.A.A.A.A.",
"A.A.A.A.A.A.A.A.A.A.A.A.A.A.A.A.A.8.L 2.` ` ` 2.7.n.A.A.A.A.A.A.",
"A.A.A.A.A.A.A.A.A.A.A.A.A.A.A.A.A.<.K 2.` ` ` _ ` 6.A.A.A.A.A.A.",
"A.A.A.A.A.A.A.A.A.A.A.A.A.A.A.A.A.<.r : J c.` ^ , p A.A.A.A.A.A.",
"A.A.A.A.A.A.A.A.A.A.A.A.A.A.A.A.A.<.q f Y J ` y | 6 A.A.A.A.A.A.",
"A.A.A.A.A.A.A.A.A.A.A.A.A.A.A.A.A.<.t C 1.J a ~ M C A.A.A.A.A.A.",
"A.A.A.A.A.A.A.A.A.A.A.A.A.A.$.F F +.>.x J J I v Z l.A.A.A.A.A.A.",
"S.A.A.A.A.A.A.A.A.A.A.A.A.#. .F j j ..O.1 v b C l.S.A.A.A.A.A.A.",
"A.A.A.A.F.S.A.A.A.A.A.A.#. .F l g 4 N ( r R y.i.A.A.A.A.A.A.A.A.",
"A.A.A.A.S.A.A.A.A.A.A.A.F h S g 4 > < s ` a.p.p.d.H.A.A.A.A.A.A.",
"A.A.A.A.A.A.A.A.A.A.A.A.<.c 4 4 5 v P s P 7.w s 3.5.;.A.A.A.A.A.",
"A.A.A.A.A.A.A.A.A.A.A.f.) x 3 5 6 8 e a _ x.s i b i C A.A.A.A.A.",
"A.A.A.A.A.A.A.A.A.A.f.4.K Q ,.M 1 a J / c._ w 1 , : w ;.A.A.A.A.",
"A.A.S.F.A.A.A.A.A.A.:.K :.l.A.O.6 w i / 7.s s u O.R , C A.A.A.A.",
"A.A.A.A.A.A.A.A.A.f.U Q l.A.A.Q 1 q e / ^ . i M S.t., v >.A.A.A.",
"A.A.A.A.A.A.A.A.A.p.J q.A.A.A.e.M 8 r s s a u >.S.N.R 6 v A.A.A.",
"A.A.A.A.A.A.A.A.S.p.V q.A.F.A.F.Q . y E >.r.e.A.A.A.u.: u A.A.A.",
"A.A.A.A.A.A.A.A.z.) :.l.A.0. .t.! . y ! 0.A.A.A.A.A.C.B , 9.A.A.",
"A.A.A.$.$.o.o.T U b D ..k.N @ c c + : # n F.A.A.A.A.A.C.B w 9.A.",
"A.A.A.X.d & X   6 6 o d w.,.7 @ @ $ # # I A.A.A.A.A.A.A.C.B w W ",
"A.A.A.D.k d f f R k k k.A.A.;.3 # 0 9 @ N S.A.A.A.A.A.A.A.C.B M ",
"A.A.A.*.A.A.A.A.A.A.A.A.A.A.f.v @ 9 9 O p u.A.A.A.A.A.A.A.A.A.S.",
"A.A.A.} M.A.A.A.A.A.A.A.A.B.p.U 2 $ % O 1 A u.A.A.A.A.A.A.A.A.A.",
"A.A.-.@.V.A.A.A.A.A.A.A.A.r.2.g.+.7 $ 3 p t A u.A.A.A.A.A.A.A.A.",
"A.Z.' Z.A.A.A.A.A.A.A.A.F.d.4.i.A.,.q H e.u r R A.A.A.A.A.A.A.A.",
"A.C.* k.A.A.A.A.A.A.A.A.H.m.G.A.A.A.;.m S.e.u ~ B.A.A.A.A.A.A.A.",
"A.A.z M.A.A.A.A.A.A.A.A.H.v.g.S.A.A.+.D A.A.z.` 6.A.A.A.A.A.A.A.",
"A.k.-.j.A.A.A.A.A.A.A.A.h.^ <.F.A.A.A.A.A.A.i./ p.A.A.A.A.A.A.A.",
"&.- ' = %.Z.A.A.A.A.A.A.;.x ,.A.A.A.A.A.A.A.8.8 1.A.A.A.A.A.A.A.",
"= { = { - j.A.A.A.A.A.A.s.I ,.A.A.A.A.A.A.A.q.< G A.A.A.A.A.A.A.",
"[ =.{ =.{ -.A.A.A.A.A.A.s.I ,.A.A.A.A.A.A.A.8., A A.A.A.A.A.A.A.",
"= ] = ] ; j.A.A.A.S.F.h.b.( ,.A.A.A.A.A.A.S.8.. u C.A.A.A.A.A.A."
};
