/* XPM */
static char *_7293_03b2ea5e62150a1497c657b8cc94b27f029e02165505b75870b8a96191489c72[] = {
/* columns rows colors chars-per-pixel */
"32 32 232 2 ",
"   c #9CCEAD",
".  c #88B497",
"X  c #382F28",
"o  c #584640",
"O  c #5E7C68",
"+  c #441010",
"@  c #9E5353",
"#  c #65806C",
"$  c #90BE9F",
"%  c #2B1E19",
"&  c #540D0D",
"*  c #E67C7C",
"=  c #664A46",
"-  c #5E715F",
";  c #540303",
":  c #550D0D",
">  c #EF8181",
",  c #B96867",
"<  c #607765",
"1  c #8BB79A",
"2  c #522C25",
"3  c #790000",
"4  c #EE8181",
"5  c #F28787",
"6  c #6A554E",
"7  c #617B67",
"8  c #710000",
"9  c #850000",
"0  c #560F0F",
"q  c #D85F5F",
"w  c #EB6969",
"e  c #AF6161",
"r  c #637E6B",
"t  c #481E19",
"y  c #9F0000",
"u  c #820000",
"i  c #561111",
"p  c #CC4D4D",
"a  c #B01313",
"s  c #F07E7E",
"d  c #5C715F",
"f  c #790404",
"g  c #A80101",
"h  c #810000",
"j  c #561010",
"k  c #CD4F4F",
"l  c #A30101",
"z  c #D64D4D",
"x  c #B96968",
"c  c #4E2C25",
"v  c #B60C0C",
"b  c #C20D0D",
"n  c #7F0000",
"m  c #A00000",
"M  c #C23030",
"N  c #617B67",
"B  c #740202",
"V  c #E91D1D",
"C  c #CA1010",
"Z  c #800000",
"A  c #A10000",
"S  c #AC0F0F",
"D  c #EF6F6F",
"F  c #B06262",
"G  c #637E6A",
"H  c #A60404",
"J  c #F82525",
"K  c #F42222",
"L  c #890303",
"P  c #EA6D6D",
"I  c #F98B8B",
"U  c #654945",
"Y  c #5B715F",
"T  c #8A0C0C",
"R  c #C60F0F",
"E  c #F62424",
"W  c #F92525",
"Q  c #8A0303",
"!  c #C13030",
"~  c #FF8F8F",
"^  c #FF8E8E",
"/  c #B86867",
"(  c #4D2C25",
")  c #BA0E0E",
"_  c #FD2727",
"`  c #FE2828",
"'  c #F82424",
"]  c #A40202",
"[  c #D44C4C",
"{  c #FF8D8D",
"}  c #F18585",
"|  c #6E0000",
" . c #B00505",
".. c #EC2020",
"X. c #FF2A2A",
"o. c #FC2525",
"O. c #8B0303",
"+. c #571010",
"@. c #AA0C0C",
"#. c #F98484",
"$. c #FF9191",
"%. c #FF9090",
"&. c #AE6060",
"*. c #8FBD9F",
"=. c #491E19",
"-. c #9C0000",
";. c #C91111",
":. c #E11B1B",
">. c #C51818",
",. c #700202",
"<. c #D96060",
"1. c #B41A1A",
"2. c #D95252",
"3. c #DF5B5B",
"4. c #EB6D6D",
"5. c #F88A8A",
"6. c #674A46",
"7. c #8DBB9D",
"8. c #5B1C19",
"9. c #E01A1A",
"0. c #DD1A1A",
"q. c #B20707",
"w. c #8C0000",
"e. c #8E0F0F",
"r. c #DF6161",
"t. c #861111",
"y. c #630000",
"u. c #6A0000",
"i. c #901010",
"p. c #AB3131",
"a. c #C53131",
"s. c #682421",
"d. c #68211E",
"f. c #FF2929",
"g. c #D11414",
"h. c #B70909",
"j. c #A60202",
"k. c #A30000",
"l. c #A40000",
"z. c #AF1111",
"x. c #D64E4E",
"c. c #420000",
"v. c #430000",
"b. c #670000",
"n. c #7D0000",
"m. c #890000",
"M. c #4B1310",
"N. c #8DBB9D",
"B. c #9ACBAA",
"V. c #646253",
"C. c #B61818",
"Z. c #C40D0D",
"A. c #CA1111",
"S. c #A40101",
"D. c #A20000",
"F. c #891010",
"G. c #D04F4F",
"H. c #660000",
"J. c #440000",
"K. c #510000",
"L. c #880000",
"P. c #595D4E",
"I. c #7BA288",
"U. c #5D1814",
"Y. c #B60A0A",
"T. c #AD0404",
"R. c #811515",
"E. c #CA4F4F",
"W. c #690000",
"Q. c #610000",
"!. c #6B0000",
"~. c #541713",
"^. c #4C5346",
"/. c #E51C1C",
"(. c #981F1F",
"). c #C94E4E",
"_. c #6F0000",
"`. c #990000",
"'. c #3A0000",
"]. c #445346",
"[. c #85B094",
"{. c #4E100E",
"}. c #BD0C0C",
"|. c #FC2626",
" X c #981E1E",
".X c #980000",
"XX c #780000",
"oX c #480000",
"OX c #28100E",
"+X c #9D0000",
"@X c #A50101",
"#X c #E21C1C",
"$X c #971E1E",
"%X c #9A0000",
"&X c #4D0000",
"*X c #2C1E19",
"=X c #6D0000",
"-X c #C30C0C",
";X c #FF2828",
":X c #9B0000",
">X c #380000",
",X c #5E7B67",
"<X c #4F2C25",
"1X c #BF1010",
"2X c #960000",
"3X c #3E2C25",
"4X c #607361",
"5X c #B31E1D",
"6X c #770303",
"7X c #5D715F",
"8X c #662B26",
"9X c #F82727",
"0X c #740000",
"qX c #940000",
"wX c #637C68",
"eX c #AE1B1B",
"rX c #6A3730",
"tX c #F12525",
"yX c #502C25",
"uX c #B9201F",
"iX c #991F1F",
"pX c #CA4E4E",
"aX c #760303",
"sX c #652824",
"dX c #981D1D",
"fX c #C74F4F",
"gX c #471C18",
"hX c #78967E",
"jX c #62211E",
"kX c #7D4945",
"lX c #75957E",
"zX c #749981",
/* pixels */
"                            . X o .                             ",
"                            O + @ #                             ",
"                          $ % & * = $                           ",
"                          - ; : > , <                           ",
"                        1 2 3 : 4 5 6 1                         ",
"                        7 8 9 0 q w e r                         ",
"                      $ t y u i p a s = $                       ",
"                      d f g h j k l z x <                       ",
"                    1 c v b n j k m M 5 6 1                     ",
"                    N B V C Z j k A S D F G                     ",
"                  $ t H J K L j k A S P I U $                   ",
"                  Y T R E W Q j k m ! ~ ^ / <                   ",
"                1 ( ) _ ` ' Q j k ] [ ^ { } 6 1                 ",
"                7 |  ...X.o.O.+.p @.#.$.~ %.&.G                 ",
"              *.=.-.m ;.:.>.,.0 <.1.2.3.4.~ 5.6.*.              ",
"              7.8.9.0.q.m w.Z e.r.t.y.u.i.p.a.s.7.              ",
"              7.d.f.g.h.j.k.l.z.x.y.c.v.b.n.m.M.N.              ",
"              B.V.C.Z.A.S.D.A F.G.H.c.J.K.L.K.P.B.              ",
"                I.U.Y.h.m A T.R.E.W.Q.K.J.!.~.I.                ",
"                  ^.L.D.D.j./.(.)._.`.H.J.'.].                  ",
"                  [.{.k.A }.|. X)._..XXXoXOX[.                  ",
"                  $ =.+X@X#Xf.$X)._..X%X&X*X$                   ",
"                    7 =X-X_ ;X$X)._..X:X>X,X                    ",
"                    1 <X1X;X;X$X)._..X2X3X1                     ",
"                      4X5X;X;X$X).| .X6X7X                      ",
"                      $ 8X9X;X$X).0XqX=.$                       ",
"                        wXeXf.$X).A | 7                         ",
"                        1 rXtX X).`.yX1                         ",
"                          4XuXiXpXaXd                           ",
"                          $ sXdXfXgX$                           ",
"                            hXjXkXlX                            ",
"                              zXzX                              "
};
