/* XPM */
static char *_2750_0051ed35138edeec419e11208f691f98e26b6c9d0c3b22362706105a48dfab68[] = {
/* columns rows colors chars-per-pixel */
"32 32 177 2 ",
"   c #9CCEAD",
".  c #8DBA9C",
"X  c #687E6B",
"o  c #90BC9E",
"O  c #556756",
"+  c #711F1F",
"@  c #747666",
"#  c #88B295",
"$  c #391C18",
"%  c #9F1F1F",
"&  c #985853",
"*  c #87B296",
"=  c #666757",
"-  c #590000",
";  c #A22121",
":  c #DE7070",
">  c #717B6B",
",  c #87B295",
"<  c #681C18",
"1  c #700000",
"2  c #9A1616",
"3  c #EF6868",
"4  c #956560",
"5  c #646757",
"6  c #8D0000",
"7  c #720000",
"8  c #941212",
"9  c #CD3232",
"0  c #D67272",
"q  c #671C18",
"w  c #A30000",
"e  c #710000",
"r  c #943232",
"t  c #BD2525",
"y  c #F48080",
"u  c #95645F",
"i  c #8B0000",
"p  c #A90202",
"a  c #943636",
"s  c #D54B4B",
"d  c #DC5656",
"f  c #D57171",
"g  c #661C18",
"h  c #A00000",
"j  c #C40E0E",
"k  c #7B0404",
"l  c #932121",
"z  c #D24141",
"x  c #C83C3C",
"c  c #F98585",
"v  c #95635E",
"b  c #636757",
"n  c #A30A0A",
"m  c #BE0C0C",
"M  c #C81010",
"N  c #7C0404",
"B  c #992A2A",
"V  c #E35858",
"C  c #DE5D5D",
"Z  c #FF9393",
"A  c #DC7C7C",
"S  c #727B6B",
"D  c #691E19",
"F  c #C81111",
"G  c #EF2222",
"H  c #E21B1B",
"J  c #800202",
"K  c #A34747",
"L  c #D35757",
"P  c #DD6363",
"I  c #CB4D4D",
"U  c #C94C4C",
"Y  c #7F4F4B",
"T  c #68715F",
"R  c #C41A1A",
"E  c #F32222",
"W  c #D01414",
"Q  c #E81F1F",
"!  c #A60202",
"~  c #BA3939",
"^  c #6D1A1A",
"/  c #7C0B0B",
"(  c #750202",
")  c #630202",
"_  c #550606",
"`  c #756F5E",
"'  c #6A6C5B",
"]  c #DF2424",
"[  c #E01A1A",
"{  c #D61616",
"}  c #D41616",
"|  c #A10000",
" . c #C83737",
".. c #791212",
"X. c #8A0000",
"o. c #790000",
"O. c #820000",
"+. c #6D6757",
"@. c #78917A",
"#. c #AB1F1D",
"$. c #C70F0F",
"%. c #DF1B1B",
"&. c #BF0D0D",
"*. c #980000",
"=. c #B53737",
"-. c #7F1212",
";. c #6F0000",
":. c #800000",
">. c #5C0907",
",. c #748F78",
"<. c #95C5A6",
"1. c #644036",
"2. c #B30B0B",
"3. c #CC1212",
"4. c #A80303",
"5. c #AA0808",
"6. c #A83A3A",
"7. c #801212",
"8. c #520000",
"9. c #8F0000",
"0. c #630000",
"q. c #583F35",
"w. c #738F78",
"e. c #830F0D",
"r. c #C61010",
"t. c #AF0505",
"y. c #DB1D1D",
"u. c #AD3C3C",
"i. c #4E0000",
"p. c #4E0907",
"a. c #6E8F78",
"s. c #8DBB9D",
"d. c #67221D",
"f. c #B30808",
"g. c #D11414",
"h. c #E82222",
"j. c #4F0000",
"k. c #3C201A",
"l. c #646757",
"z. c #930404",
"x. c #E82323",
"c. c #AD3737",
"v. c #801010",
"b. c #500000",
"n. c #600000",
"m. c #566757",
"M. c #7F2722",
"N. c #F92626",
"B. c #AD1818",
"V. c #7F0606",
"C. c #4D0000",
"Z. c #581C18",
"A. c #726D5D",
"S. c #DC2323",
"D. c #E92424",
"F. c #AD1414",
"G. c #860505",
"H. c #440000",
"J. c #5D6757",
"K. c #96302C",
"L. c #E62323",
"P. c #AB1414",
"I. c #A90505",
"U. c #671C18",
"Y. c #88B295",
"T. c #736D5D",
"R. c #C31E1E",
"E. c #AF1414",
"W. c #980505",
"Q. c #87B295",
"!. c #7E2B26",
"~. c #72211D",
"^. c #7A8A74",
"/. c #6F2D27",
"(. c #7E8B75",
"). c #9ACCAB",
"_. c #8FBC9E",
/* pixels */
"                                                                ",
"                                                                ",
"                                                                ",
"                                                                ",
"                                                                ",
"                                                                ",
"                            . X o                               ",
"                            O + @                               ",
"                          # $ % & *                             ",
"                          = - ; : >                             ",
"                        , < 1 2 3 4 ,                           ",
"                        5 6 7 8 9 0 >                           ",
"                      , q w e r t y u ,                         ",
"                      5 i p 7 a s d f >                         ",
"                    , g h j k l z x c v ,                       ",
"                    b n m M N B V C Z A S                       ",
"                  , D F G H J K L P I U Y ,                     ",
"                  T R E W Q ! ~ ^ / ( ) _ `                     ",
"                  ' ] [ { } |  ...7 X.o.O.+.                    ",
"                  @.#.$.%.&.*.=.-.;.i :.>.,.                    ",
"                  <.1.2.3.4.5.6.7.8.9.0.q.<.                    ",
"                    w.e.r.t.y.u.7.i.9.p.a.                      ",
"                    s.d.f.g.h.u.7.j.;.k.s.                      ",
"                      l.z.E x.c.v.b.n.m.                        ",
"                      , M.N.x.B.V.C.Z.,                         ",
"                        A.S.D.F.G.H.J.                          ",
"                        , K.L.P.I.U.Y.                          ",
"                          T.R.E.W.5                             ",
"                          Q.!.E.~.,                             ",
"                            ^./.(.                              ",
"                            )._.).                              ",
"                                                                "
};
