/* XPM */
static char *_605_3b7887b67661c00cf816006f990d115d38f95e573d0d895939b2b4743796f081[] = {
/* columns rows colors chars-per-pixel */
"32 32 183 2 ",
"   c #9CCEAD",
".  c #8DBA9C",
"X  c #687D6A",
"o  c #90BC9E",
"O  c #556756",
"+  c #713232",
"@  c #747D6D",
"#  c #88B295",
"$  c #391C18",
"%  c #A04040",
"&  c #994D49",
"*  c #87B295",
"=  c #666756",
"-  c #590000",
";  c #9D3A3A",
":  c #CD2A2A",
">  c #717160",
",  c #681C18",
"<  c #710000",
"1  c #932222",
"2  c #D92323",
"3  c #94433F",
"4  c #87B396",
"5  c #646756",
"6  c #8C0000",
"7  c #720000",
"8  c #940E0E",
"9  c #BE0E0E",
"0  c #CE5050",
"q  c #717C6B",
"w  c #6C1F1A",
"e  c #B50808",
"r  c #700000",
"t  c #9B1818",
"y  c #C12020",
"u  c #D24D4D",
"i  c #966661",
"p  c #626756",
"a  c #A90D0D",
"s  c #D31414",
"d  c #A12626",
"f  c #D33D3D",
"g  c #BD2929",
"h  c #D67373",
"j  c #717B6A",
"k  c #681D19",
"l  c #D11515",
"z  c #F52323",
"x  c #790101",
"c  c #A04444",
"v  c #D74C4C",
"b  c #FA8787",
"n  c #966560",
"m  c #626756",
"M  c #AF1010",
"N  c #EF2121",
"B  c #F72424",
"V  c #7A0202",
"C  c #9F4848",
"Z  c #F57B7B",
"A  c #DE5E5E",
"S  c #F88383",
"D  c #C45555",
"F  c #707969",
"G  c #87B295",
"H  c #802723",
"J  c #E81E1E",
"K  c #FF2929",
"L  c #7B0202",
"P  c #A04848",
"I  c #EF7373",
"U  c #DB5656",
"Y  c #BC2828",
"T  c #B31C1C",
"R  c #89524D",
"E  c #87B296",
"W  c #7A7361",
"Q  c #DB2222",
"!  c #FF2828",
"~  c #C81A1A",
"^  c #5C0000",
"/  c #9C4141",
"(  c #C43030",
")  c #A60505",
"_  c #A10000",
"`  c #B11515",
"'  c #B23D3D",
"]  c #6E7F6D",
"[  c #846B5B",
"{  c #E72323",
"}  c #F02323",
"|  c #BA1818",
" . c #770808",
".. c #5F0000",
"X. c #9E1D1D",
"o. c #840A0A",
"O. c #991C1C",
"+. c #C63737",
"@. c #BD4B4B",
"#. c #6A7665",
"$. c #85917A",
"%. c #AF1F1D",
"&. c #D01414",
"*. c #E82323",
"=. c #CF1818",
"-. c #9A0101",
";. c #B00D0D",
":. c #790404",
">. c #410000",
",. c #530909",
"<. c #8D1212",
"1. c #671817",
"2. c #75917A",
"3. c #95C5A6",
"4. c #634036",
"5. c #B70D0D",
"6. c #F72525",
"7. c #C00D0D",
"8. c #930000",
"9. c #A21010",
"0. c #810505",
"q. c #440000",
"w. c #570000",
"e. c #583F35",
"r. c #728F78",
"t. c #951514",
"y. c #E01A1A",
"u. c #AA0404",
"i. c #A80808",
"p. c #A81212",
"a. c #450000",
"s. c #4B0000",
"d. c #370907",
"f. c #6F8F78",
"g. c #8DBB9D",
"h. c #7A2A25",
"j. c #BA0B0B",
"k. c #C10D0D",
"l. c #C21313",
"z. c #AE1515",
"x. c #800505",
"c. c #4E0000",
"v. c #660000",
"b. c #36201A",
"n. c #940505",
"m. c #C91010",
"M. c #BD1111",
"N. c #AE1414",
"B. c #500000",
"V. c #600000",
"C. c #566756",
"Z. c #792520",
"A. c #C20E0E",
"S. c #D81D1D",
"D. c #AE1919",
"F. c #7F0606",
"G. c #510000",
"H. c #5A1C18",
"J. c #676858",
"K. c #AA0D0D",
"L. c #E52020",
"P. c #AD3737",
"I. c #8A1010",
"U. c #6A0000",
"Y. c #932F2B",
"T. c #E72222",
"R. c #AB3C3C",
"E. c #AA1212",
"W. c #651C18",
"Q. c #726D5C",
"!. c #C31C1C",
"~. c #AE3C3C",
"^. c #981212",
"/. c #636756",
"(. c #87B295",
"). c #7E2A26",
"_. c #AE3B3B",
"`. c #722E2A",
"'. c #7A8A74",
"]. c #6F403B",
"[. c #7E927C",
"{. c #9ACCAB",
"}. c #8FBC9E",
/* pixels */
"                                                                ",
"                                                                ",
"                                                                ",
"                                                                ",
"                            . X o                               ",
"                            O + @                               ",
"                          # $ % & *                             ",
"                          = - ; : >                             ",
"                        * , < 1 2 3 4                           ",
"                        5 6 7 8 9 0 q                           ",
"                      * w e r t y u i *                         ",
"                      p a s r d f g h j                         ",
"                    * k l z x c v g b n *                       ",
"                    m M N B V C Z A S D F                       ",
"                  G H J K B L P I U Y T R E                     ",
"                  W Q K ! ~ ^ / ( ) _ ` ' ]                     ",
"                  [ { } |  ...X.o.r O.+.@.#.                    ",
"                  $.%.&.*.=.-.;.:.>.,.<.1.2.                    ",
"                  3.4.5.6.7.8.9.0.q.q.w.e.3.                    ",
"                    r.t.y.u.i.p.0.a.s.d.f.                      ",
"                    g.h.j.k.l.z.x.c.v.b.g.                      ",
"                      p n.m.M.N.x.B.V.C.                        ",
"                      * Z.A.S.D.F.G.H.*                         ",
"                        J.K.L.P.I.U.5                           ",
"                        * Y.T.R.E.W.*                           ",
"                          Q.!.~.^./.                            ",
"                          (.)._.`.*                             ",
"                            '.].[.                              ",
"                            {.}.{.                              ",
"                                                                ",
"                                                                ",
"                                                                "
};
