/* XPM */
static char *_858_f4d70b99edbcb614666ac5bba14694546e7977193ce7315ecd88732267b42019[] = {
/* columns rows colors chars-per-pixel */
"32 32 180 2 ",
"   c #9CCEAD",
".  c #9ACCAB",
"X  c #8FBC9E",
"o  c #71917A",
"O  c #5A3B36",
"+  c #7E9982",
"@  c #95C5A6",
"#  c #423F35",
"$  c #8E1D1D",
"%  c #806157",
"&  c #758F78",
"*  c #460907",
"=  c #A42121",
"-  c #BB6260",
";  c #78967F",
":  c #623F35",
">  c #680000",
",  c #9F1E1E",
"<  c #F07676",
"1  c #7C6B61",
"2  c #738F78",
"3  c #7A0907",
"4  c #730000",
"5  c #950E0E",
"6  c #E14D4D",
"7  c #B76C6B",
"8  c #78957F",
"9  c #613F35",
"0  c #9B0000",
"q  c #710000",
"w  c #942222",
"e  c #BE2121",
"r  c #E67878",
"t  c #7D6B61",
"y  c #790907",
"u  c #A50000",
"i  c #700000",
"p  c #943636",
"a  c #CB3B3B",
"s  c #F47B7B",
"d  c #B76A69",
"f  c #603F35",
"g  c #990000",
"h  c #B70808",
"j  c #770101",
"k  c #933131",
"l  c #D44949",
"z  c #C43333",
"x  c #E87979",
"c  c #738F78",
"v  c #7D0B09",
"b  c #A70202",
"n  c #C71010",
"m  c #7C0404",
"M  c #951818",
"N  c #D64444",
"B  c #D65252",
"V  c #FF8F8F",
"C  c #B86C6B",
"Z  c #5F3F35",
"A  c #BF1010",
"S  c #DF1A1A",
"D  c #D11313",
"F  c #7C0303",
"G  c #9E4141",
"H  c #E76464",
"J  c #E66969",
"K  c #F88181",
"L  c #E87777",
"P  c #7B685E",
"I  c #BB0A0A",
"U  c #F62525",
"Y  c #E51F1F",
"T  c #740101",
"R  c #A14949",
"E  c #DD5858",
"W  c #C73737",
"Q  c #B01515",
"!  c #CE4141",
"~  c #B96866",
"^  c #83967F",
"/  c #616857",
"(  c #9C0505",
")  c #DD1919",
"_  c #E51C1C",
"`  c #900808",
"'  c #510000",
"]  c #A64646",
"[  c #EB7474",
"{  c #C33A3A",
"}  c #C53B3B",
"|  c #E87171",
" . c #D97070",
".. c #6D7565",
"X. c #6C7361",
"o. c #CA1C1C",
"O. c #C81010",
"+. c #C21010",
"@. c #930000",
"#. c #C03939",
"$. c #8D2020",
"%. c #841111",
"&. c #931212",
"*. c #8D1010",
"=. c #7B0E0E",
"-. c #66715F",
";. c #87B296",
":. c #7B2621",
">. c #C50F0F",
",. c #D51616",
"<. c #B10606",
"1. c #A83838",
"2. c #7F1212",
"3. c #5F0000",
"4. c #8F0000",
"5. c #760000",
"6. c #531C18",
"7. c #87B295",
"8. c #636757",
"9. c #9A0606",
"0. c #C71414",
"q. c #AC3B3B",
"w. c #801212",
"e. c #4D0000",
"r. c #900000",
"t. c #5D6757",
"y. c #84AE93",
"u. c #721815",
"i. c #C30D0D",
"p. c #BE0C0C",
"a. c #E32121",
"s. c #AD3C3C",
"d. c #4F0000",
"f. c #810000",
"g. c #481310",
"h. c #624036",
"j. c #A10303",
"k. c #E41C1C",
"l. c #E92323",
"z. c #500000",
"x. c #650000",
"c. c #433F35",
"v. c #728F78",
"b. c #87100E",
"n. c #F92525",
"m. c #E82323",
"M. c #AD2828",
"N. c #800B0B",
"B. c #5D0907",
"V. c #6E8F78",
"C. c #79493F",
"Z. c #F02626",
"A. c #AD1313",
"S. c #7F0505",
"D. c #440000",
"F. c #573F35",
"G. c #78917A",
"H. c #B92624",
"J. c #EA2424",
"K. c #AC1414",
"L. c #990505",
"P. c #580907",
"I. c #728F78",
"U. c #7D4C41",
"Y. c #D92121",
"T. c #AD1414",
"R. c #A70505",
"E. c #643F35",
"W. c #79917A",
"Q. c #A0201E",
"!. c #B11515",
"~. c #840E0C",
"^. c #738F78",
"/. c #95C4A5",
"(. c #714E43",
"). c #981010",
"_. c #704C40",
"`. c #8FBA9C",
"'. c #6D7966",
"]. c #90BA9D",
/* pixels */
"                                                                ",
"                                                                ",
"                                                                ",
"                                                                ",
"                            . X .                               ",
"                            o O +                               ",
"                          @ # $ % @                             ",
"                          & * = - ;                             ",
"                        @ : > , < 1 @                           ",
"                        2 3 4 5 6 7 8                           ",
"                      @ 9 0 q w e r t @                         ",
"                      2 y u i p a s d 8                         ",
"                    @ f g h j k l z x t @                       ",
"                    c v b n m M N B V C 8                       ",
"                  @ Z A S D F G H J K L P @                     ",
"                  2 y I U Y T R E W Q ! ~ ^                     ",
"                  / ( ) _ ` ' ] [ { } |  ...                    ",
"                  X.o.O.S +.@.#.$.%.&.*.=.-.                    ",
"                  ;.:.>.,.<.g 1.2.3.4.5.6.7.                    ",
"                    8.9.O.b 0.q.w.e.r.' t.                      ",
"                    y.u.i.p.a.s.w.d.f.g.y.                      ",
"                    @ h.j.k.l.s.w.z.x.c.@                       ",
"                      v.b.n.m.M.N.z.B.V.                        ",
"                      @ C.Z.l.A.S.D.F.@                         ",
"                        G.H.J.K.L.P.I.                          ",
"                        @ U.Y.T.R.E.@                           ",
"                          W.Q.!.~.^.                            ",
"                          /.(.)._./.                            ",
"                            `.'.].                              ",
"                                                                ",
"                                                                ",
"                                                                "
};
