/* XPM */
static char *_4335_a7a5e8f29181cd47d913529185cb657a568de69b5b5e4f536af0131632faa683[] = {
/* columns rows colors chars-per-pixel */
"32 32 10 1 ",
"  c #9CCEAD",
". c #FFC386",
"X c #D3975B",
"o c #896B62",
"O c black",
"+ c #CE0000",
"@ c white",
"# c #671372",
"$ c #973CA3",
"% c #5D4242",
/* pixels */
"                                ",
"                                ",
"                                ",
"                                ",
"           .       X            ",
"           X.     XX            ",
"           XX.   XXX            ",
"           Xo..XXXXX            ",
"          Xoo......XX           ",
"          XXoXOO.X...O          ",
"          XXXOOO..X.XO          ",
"          XXXOO+...X.+          ",
"          XXXOOO.@.O@O #        ",
"       $ XXXXXXXO@OO@X## #      ",
"     $ $$XXXXXXOXXXXXX#oo##     ",
"    $$..$XXXXXXXX....Xoooo#     ",
"    $X..oXXXXXX.......%%%%%o    ",
"   XoooooXXXX..........%%%%%o   ",
"  XooooooXXX.......X...%%%%%o   ",
"  XooooooXXX.......XX.. %%%%%o  ",
" Xoooo   XXXXX......X.X    %%o  ",
" Xo      %XXXXXX....X%       o  ",
" X       X%%XXXXXXX%%o          ",
"         ..X%%%%%%%%%o          ",
"         X.X.     o%o%          ",
"          .         o           ",
"                                ",
"                                ",
"                                ",
"                                ",
"                                ",
"                                "
};
