/* XPM */
static char *_7332_61f2496e3888799ad6ca7a855e57376e1b1570e2a9f8b171ae4a79c52dd0edfa[] = {
/* columns rows colors chars-per-pixel */
"32 32 10 1 ",
"  c #9CCEAD",
". c #FFC386",
"X c #D3975B",
"o c #896B62",
"O c #671372",
"+ c #973CA3",
"@ c black",
"# c #CE0000",
"$ c #5D4242",
"% c white",
/* pixels */
"                                ",
"                                ",
"                                ",
"                                ",
"                                ",
"            .      X            ",
"            X.     X            ",
"           XX.    XXX           ",
"           Xo..XXXXXX           ",
"          Xoo......XX  O        ",
"       + XXXoX@@@X..@@OO O      ",
"     + ++XXXX@@@..X.X@OooOO     ",
"    ++..+XXXX@@#...X.#o$$$$o    ",
"   XoooooXXXX@@@...@@@$$$$$$o   ",
"  XooooooXXXXXXX@%@@%@$$$$$$o   ",
"  XooooooXXXXXX@@%@@%X  $$$$$o  ",
" Xoooo  XXXXX.......XX     $$o  ",
" Xo     XXX..........X       o  ",
" X      XX............          ",
"        XXX......X....          ",
"        $XXX......X..X          ",
"        X$XXX.....XX$           ",
"        XX$$XXXXXXX$o           ",
"        .XX$$$$$$$$oo           ",
"         .XX     $$o            ",
"                                ",
"                                ",
"                                ",
"                                ",
"                                ",
"                                ",
"                                "
};
