/* XPM */
static char *_051_8a0844487480fda8a347b2f77ac0778163031a22c19e9cc739ffb9e0e173e973[] = {
/* columns rows colors chars-per-pixel */
"32 32 10 1 ",
"  c #9CCEAD",
". c #FFC386",
"X c #D3975B",
"o c #896B62",
"O c #671372",
"+ c #973CA3",
"@ c black",
"# c #5D4242",
"$ c #CE0000",
"% c white",
/* pixels */
"                                ",
"                                ",
"                                ",
"                                ",
"                                ",
"            .      X            ",
"            X.     X            ",
"           XX.    XXX           ",
"           Xo..XXXXXX  O        ",
"       +  Xoo......XX OO O      ",
"     + ++XXXoX@@@X..@@OooOO     ",
"    ++..+XXXX@@@..X.X@o####o    ",
"   XoooooXXXX@@$...X.$######o   ",
"  XooooooXXXX@@@...@@@######o   ",
"  XooooooXXXXXXX@%@@%@  #####o  ",
" Xoooo   XXXXXX@@%@@%X     ##o  ",
" Xo     XXXX........XX       o  ",
" X      XX...........X          ",
"        XX............          ",
"        XXX......X....          ",
"        #XXX......X..X          ",
"        X#XXX.....XX#           ",
"        XX##XXXXXXX#o           ",
"        .XX########oo           ",
"         .XX     ##o            ",
"                                ",
"                                ",
"                                ",
"                                ",
"                                ",
"                                ",
"                                "
};
