/* XPM */
static char *_5225_0f34e92629e413db5e9cb8deb319ea525c7942c71023013d0d0942c6c0d59bb1[] = {
/* columns rows colors chars-per-pixel */
"32 32 10 1 ",
"  c #9CCEAD",
". c #FFC386",
"X c #D3975B",
"o c #896B62",
"O c black",
"+ c #CE0000",
"@ c white",
"# c #671372",
"$ c #973CA3",
"% c #5D4242",
/* pixels */
"                                ",
"                                ",
"                                ",
"                                ",
"           .       X            ",
"           X.     XX            ",
"           XX.    XX            ",
"          XXo..XXXXX            ",
"          Xoo......XX           ",
"          XXoXOO.X...O          ",
"          XXXOOO..X.XO          ",
"         XXXXOO+...X.+          ",
"         XXXXOOO.@.O@O          ",
"         XXXXXXXO@OO@X          ",
"         XXXXXXOXXXXXX          ",
"         XXXXXXXXXX..X          ",
"        XXXXXXXX.....X          ",
"        XXXXX.........          ",
"        XXX.......X...#oo##o    ",
"   X$$..XXX.......XX..%%%%%%o   ",
"  XoooooXXXX.......X.X  %%%%%o  ",
" Xoooo  %XXXXX.....X%        o  ",
" X      X%%XXXXXXXX%o           ",
"        ..X%%%%%%%%%o           ",
"        X.X.     o%o%           ",
"         .         o            ",
"                                ",
"                                ",
"                                ",
"                                ",
"                                ",
"                                "
};
