/* XPM */
static char *_6419_9b4b87945ad631233da4cd108fa45d60d97e59c85947e8b6248e4611fdf578dc[] = {
/* columns rows colors chars-per-pixel */
"32 32 151 2 ",
"   c #775232",
".  c #7C5530",
"X  c #7E5937",
"o  c #745738",
"O  c #796648",
"+  c #7C6E4F",
"@  c #7E7151",
"#  c #814927",
"$  c #804E2A",
"%  c #88492E",
"&  c #84572E",
"*  c #955C2F",
"=  c #884A30",
"-  c #8A5134",
";  c #845C36",
":  c #895C33",
">  c #865639",
",  c #825C39",
"<  c #995431",
"1  c #935C34",
"2  c #9B5A32",
"3  c #9A5D3C",
"4  c #A45732",
"5  c #A45B31",
"6  c #AE5C32",
"7  c #B05E32",
"8  c #896037",
"9  c #8D643D",
"0  c #946436",
"q  c #9A6534",
"w  c #9E6C37",
"e  c #91663B",
"r  c #94693B",
"t  c #9A6B3D",
"y  c #AD632D",
"u  c #AD6B2D",
"i  c #B46B2E",
"p  c #BC6D2F",
"a  c #BD722F",
"s  c #A56432",
"d  c #AA6533",
"f  c #A56C36",
"g  c #AB6D34",
"h  c #A46539",
"j  c #AE6339",
"k  c #A16F3D",
"l  c #AB6E3E",
"z  c #BC6533",
"x  c #B46B31",
"c  c #BD6B32",
"v  c #A47136",
"b  c #AD7535",
"n  c #A4723E",
"m  c #AF743A",
"M  c #A8793D",
"N  c #B27234",
"B  c #BD7434",
"V  c #BB7B35",
"C  c #B8743B",
"Z  c #B57D3A",
"A  c #C3742E",
"S  c #C2782F",
"D  c #C76734",
"F  c #C46D31",
"G  c #C96E33",
"H  c #C47431",
"J  c #CB7234",
"K  c #C37C32",
"L  c #CD7E36",
"P  c #C47239",
"I  c #C9753A",
"U  c #8A6247",
"Y  c #8A6A47",
"T  c #836C4D",
"R  c #8D694E",
"E  c #976747",
"W  c #996746",
"Q  c #936A41",
"!  c #9C6C40",
"~  c #986748",
"^  c #946B4C",
"/  c #996949",
"(  c #8C744C",
")  c #917044",
"_  c #93774B",
"`  c #9D774F",
"'  c #96784D",
"]  c #98784B",
"[  c #8C6B50",
"{  c #857554",
"}  c #877857",
"|  c #8D7854",
" . c #9A7353",
".. c #947A53",
"X. c #9B7951",
"o. c #AD7747",
"O. c #A77847",
"+. c #A87844",
"@. c #A47B4E",
"#. c #B47E46",
"$. c #BB7E46",
"%. c #B67F48",
"&. c #BE8236",
"*. c #BC803B",
"=. c #C38436",
"-. c #CB8436",
";. c #C48837",
":. c #C98A37",
">. c #C58539",
",. c #C58A3C",
"<. c #CB913C",
"1. c #AD814D",
"2. c #B68044",
"3. c #BD8445",
"4. c #B5834C",
"5. c #BA864D",
"6. c #BC884C",
"7. c #AD8350",
"8. c #B78556",
"9. c #BE8455",
"0. c #B3855C",
"q. c #8C8E6D",
"w. c #918467",
"e. c #908D66",
"r. c #8C9B7B",
"t. c #979777",
"y. c #949C7A",
"u. c #989E7B",
"i. c #BB8A62",
"p. c #95A17D",
"a. c #C38A44",
"s. c #CA8F45",
"d. c #C0864D",
"f. c #C48B4C",
"g. c #C98D4A",
"h. c #CA914C",
"j. c #C69053",
"k. c #CC9452",
"l. c #C29164",
"z. c #CA9464",
"x. c #96A480",
"c. c #96B28E",
"v. c #9DB38F",
"b. c #97AE90",
"n. c #95B291",
"m. c #99B393",
"M. c #98B997",
"N. c #97BA9A",
"B. c #99BC9B",
"V. c #9BC8A7",
"C. c #9CCEAD",
/* pixels */
"C.C.C.m.R % = = % R m.C.C.C.C.C.C.C.C.C.C.C.C.C.C.C.C.C.C.C.C.C.",
"C.V.B.u. .3 2 < < ~ t.m.b.b.b.M.V.C.C.C.C.C.C.C.C.C.C.C.C.C.C.C.",
"C.M.e.X.0.9.C x z j / R [ R R w.M.C.C.C.C.C.C.C.C.C.C.C.C.C.C.C.",
"C.c.( t i.z.C y F z 5 < 2 < < E t.m.v.m.v.c.m.n.m.M.V.C.C.C.C.C.",
"C.c.( t l.i.> # y A z z B B z j ~ ^ ` @.@.X.| } { q.N.C.C.C.C.C.",
"C.c.( t j.0.> $ u K G J L L J D 5 < 2 5 s f t Q Q ..y.M.C.C.C.C.",
"C.c.( 0 *.3.m b V K K A K H G D z 6 < 2 N *.5.5.8.1...q.M.C.C.C.",
"C.c.( 0 *.,.,.;.,.=.K S a a F G G D 4 2 g *.a.k.k.4.Q } n.C.C.C.",
"C.c.( q 3.h.,.;.;.;.,.=.a u a A L I D 7 2 h *.s.k.5.r } m.C.C.C.",
"C.B.e.] 1.3.a.,.,.,.:.&.N N a =.-.L I z 5 2 b 2.h.8.Q } c.C.C.C.",
"C.V.N.p.' n 3.h.h.a.Z N V V &.=.S S G G H N 5 h d.6.Q { n.C.C.C.",
"C.C.C.c.( 0 2.f.f.3.N i V &.V V K H G J L B < 1 o.1...q.M.C.C.C.",
"C.C.C.c.( * v b m N c a H B d g V =.H H J z < - 9 ..x.N.V.C.C.C.",
"C.C.C.B.e.) w s m x x p F p 6 d N V V H I z < > T q.N.C.C.C.C.C.",
"C.C.C.V.B.p.) q #.$.d 6 p F p x d g V =.-.P < U y.B.V.C.C.C.C.C.",
"C.C.C.V.B.p.] w #.%.+.d x p p y y g V ;.:.B 5 ~ y.N.C.C.C.C.C.C.",
"C.C.C.N.q.( M b w n %.$.d 2 5 d V &.;.;.K H F j ~ w.M.C.C.C.C.C.",
"C.C.C.n.{ e *.&.f t #.%.l h h m ,.<.,.&.K K G z < R b.C.C.C.C.C.",
"C.C.C.c.{ r M ,.3.4.k k $.d.6.f.h.h.,.;.:.-.J 7 < U b.C.C.C.C.C.",
"C.C.C.M.q._ M *.5.1.' ' 1.4.4.5.j.k.a.,.<.:.J z 4 W y.b.n.N.V.C.",
"C.C.C.C.N.p.( r r ..p.p.( 8 8 t 6.k.k.h.,.=.K F z h Y + { q.N.C.",
"C.C.C.C.C.N.q.{ { q.B.n.@   . 9 O.4.4.4.a.>.H A G z * : U ..p.M.",
"C.C.C.C.C.C.N.n.n.B.V.n.{ 8 v v e ; ; t 3.g.I F A p i b 2.7...} ",
"C.C.C.C.C.C.C.C.C.C.C.n.{ r Z &.r ;   ; O.$.P F A A A >.k.6.Q X ",
"C.C.C.C.C.C.C.C.C.C.C.n.} e M ,.3.O.9 X , 0 c A A A K ,.h.6.Q X ",
"C.C.C.C.C.C.C.C.C.C.C.N.q.( M *.5.7...+ o & u A S K >.a.6.1...} ",
"C.C.C.C.C.C.C.C.C.C.C.C.N.p._ r Q ..x.r.O & u A =.;.f.6.! ..x.M.",
"C.C.C.C.C.C.C.C.C.C.C.C.C.N.q.{ { q.N.M.@ : N =.,.a.6.1...q.N.C.",
"C.C.C.C.C.C.C.C.C.C.C.C.C.V.M.n.m.N.V.M.{ 9 %.h.k.6.! | p.N.C.C.",
"C.C.C.C.C.C.C.C.C.C.C.C.C.C.C.C.C.C.C.M.q...7.8.5.7...q.N.C.C.C.",
"C.C.C.C.C.C.C.C.C.C.C.C.C.C.C.C.C.C.C.V.N.x...Q Q ..x.N.C.C.C.C.",
"C.C.C.C.C.C.C.C.C.C.C.C.C.C.C.C.C.C.C.C.C.M.} X , } n.C.C.C.C.C."
};
